<svg width="28" height="28" viewBox="0 0 28 28" fill="none" xmlns="http://www.w3.org/2000/svg">
<mask id="mask0_37160_37796" style="mask-type:alpha" maskUnits="userSpaceOnUse" x="2" y="2" width="24" height="24">
<path d="M2.33398 8.16699V12.8337H25.6673V8.16699H2.33398Z" fill="black"/>
<path opacity="0.7" fill-rule="evenodd" clip-rule="evenodd" d="M8.27273 2.3335H7V4.66683C7 6.59983 8.567 8.16683 10.5 8.16683H14H17.5C19.433 8.16683 21 6.59983 21 4.66683V2.3335H17.5C15.567 2.3335 14 3.9005 14 5.8335C14 3.9005 12.433 2.3335 10.5 2.3335H8.27273Z" fill="black"/>
<path opacity="0.8" fill-rule="evenodd" clip-rule="evenodd" d="M11.6667 12.8335H3.5V25.6668H11.6667V12.8335ZM16.3333 12.8335V22.1668C16.3333 24.0998 14.7663 25.6668 12.8333 25.6668H19.8333C22.4107 25.6668 24.5 23.5775 24.5 21.0002V12.8335H16.3333Z" fill="black"/>
<path opacity="0.3" d="M16.334 12.8335H11.6673V25.6668H12.834C14.767 25.6668 16.334 24.0998 16.334 22.1668V12.8335Z" fill="black"/>
</mask>
<g mask="url(#mask0_37160_37796)">
<path d="M0 0H28V28H0V0Z" fill="#9299A2"/>
</g>
</svg>
