<svg width="24" height="24" viewBox="0 0 24 24" fill="none" xmlns="http://www.w3.org/2000/svg">
<path d="M10.2485 9.52515C9.9684 9.23224 9.9684 8.75739 10.2485 8.46448C10.5287 8.17157 10.983 8.17157 11.2631 8.46448L13.6304 10.9394L15.9977 8.46448C16.2778 8.17157 16.732 8.17157 17.0122 8.46448C17.2924 8.75732 17.2924 9.23224 17.0122 9.52515L14.6449 12L17.0122 14.4749C17.2924 14.7678 17.2924 15.2427 17.0122 15.5355C16.732 15.8284 16.2778 15.8284 15.9977 15.5355L13.6304 13.0607L11.2631 15.5355C10.983 15.8284 10.5287 15.8284 10.2486 15.5355C9.9684 15.2426 9.9684 14.7678 10.2486 14.4749L12.6159 12.0001L10.2485 9.52515Z" fill="white"/>
<path fill-rule="evenodd" clip-rule="evenodd" d="M7.28998 4.37866L0 12L7.28998 19.6213C7.82814 20.184 8.55802 20.5 9.31908 20.5H19.1304C20.7153 20.5 22 19.1569 22 17.5V6.5C22 4.84314 20.7153 3.5 19.1304 3.5H9.31908C8.55802 3.5 7.82814 3.8161 7.28998 4.37866ZM19.1304 19.2H9.31908C8.88776 19.2 8.47418 19.0209 8.1692 18.7021L1.75857 12L8.1692 5.29791C8.47418 4.97913 8.88776 4.79999 9.31908 4.79999H19.1304C20.0285 4.79999 20.7565 5.5611 20.7565 6.5V17.5C20.7565 18.4389 20.0285 19.2 19.1304 19.2Z" fill="white"/>
</svg>
