<svg width="28" height="28" viewBox="0 0 28 28" fill="none" xmlns="http://www.w3.org/2000/svg">
<mask id="mask0_37160_37779" style="mask-type:alpha" maskUnits="userSpaceOnUse" x="1" y="1" width="26" height="26">
<path fill-rule="evenodd" clip-rule="evenodd" d="M4.66667 6.4165C3.05584 6.4165 1.75 7.72234 1.75 9.33317V23.3332C1.75 24.944 3.05584 26.2498 4.66667 26.2498H18.6667C20.2775 26.2498 21.5833 24.944 21.5833 23.3332V9.33317C21.5833 7.72234 20.2775 6.4165 18.6667 6.4165H4.66667ZM14.5835 11.2383V10.7915L10.3732 10.7915C9.19853 10.7915 8.23825 11.9619 8.17062 13.0082H8.16681L8.16706 15.747C8.16706 16.554 8.83857 17.2082 9.66693 17.2082H11.8189C12.3711 17.2082 12.8188 17.6443 12.8188 18.1823V18.5627C12.8188 19.1007 12.3711 19.5535 11.8189 19.5535L11.1669 19.5499V19.5415H10.0535C10.0263 19.5415 9.99929 19.5421 9.9724 19.5432L9.66693 19.5415C8.83857 19.5415 8.16706 20.191 8.16706 20.998V21.4105L8.16698 21.428L8.16706 21.8748H12.1671C13.8238 21.8748 15.1668 20.5544 15.1668 18.9405V17.7972C15.1668 16.1832 13.8238 14.8748 12.1671 14.8748H10.5001V13.1248H11.1602C11.1602 13.1248 11.1629 13.1158 11.1669 13.0988V13.1248H12.697C13.7389 13.1248 14.5835 12.2802 14.5835 11.2383Z" fill="url(#paint0_linear_37160_37779)"/>
<path opacity="0.4" d="M9.91667 1.75C8.30584 1.75 7 3.05584 7 4.66667V6.41667H18.6667C20.2775 6.41667 21.5833 7.7225 21.5833 9.33333V21.5833H23.9167C25.5275 21.5833 26.8333 20.2775 26.8333 18.6667V4.66667C26.8333 3.05584 25.5275 1.75 23.9167 1.75H9.91667Z" fill="black"/>
</mask>
<g mask="url(#mask0_37160_37779)">
<path d="M0 0H28V28H0V0Z" fill="white"/>
</g>
<defs>
<linearGradient id="paint0_linear_37160_37779" x1="21.5833" y1="26.2499" x2="13.863" y2="5.59555" gradientUnits="userSpaceOnUse">
<stop stop-opacity="0.6"/>
<stop offset="1"/>
</linearGradient>
</defs>
</svg>
