<svg width="270" height="388" viewBox="0 0 270 388" fill="none" xmlns="http://www.w3.org/2000/svg">
<mask id="mask0_4056_35401" style="mask-type:alpha" maskUnits="userSpaceOnUse" x="0" y="0" width="270" height="388">
<path d="M270 300C264.477 300 260 304.477 260 310C260 315.523 264.477 320 270 320V356C270 373.673 255.673 388 238 388H32C14.3269 388 6.443e-08 373.673 0 356V320C5.52285 320 10 315.523 10 310C10 304.477 5.52285 300 0 300V32C2.83492e-06 14.3269 14.3269 0 32 0H238C255.673 1.86836e-06 270 14.3269 270 32V300Z" fill="#2C2C2E"/>
</mask>
<g mask="url(#mask0_4056_35401)">
<path d="M0 32C0 14.3269 14.3269 0 32 0H238C255.673 0 270 14.3269 270 32V388H0V32Z" fill="#B078FF"/>
<g filter="url(#filter0_f_4056_35401)">
<ellipse cx="135.5" cy="331" rx="151.5" ry="151" fill="#9A6BFF"/>
</g>
</g>
<mask id="path-4-inside-1_4056_35401" fill="white">
<path d="M262 356C262 369.255 251.255 380 238 380H32C18.7452 380 8 369.255 8 356V326.127C13.9264 323.181 18 317.067 18 310C18 302.933 13.9267 296.818 8 293.872V32C8 18.7452 18.7452 8 32 8H238C251.255 8 262 18.7452 262 32V293.872C256.073 296.818 252 302.933 252 310C252 317.067 256.074 323.181 262 326.127V356Z"/>
</mask>
<path d="M32 380V381V381V380ZM8 356H7H8ZM8 326.127L7.55492 325.231L7 325.507V326.127H8ZM8 293.872H7V294.492L7.55494 294.768L8 293.872ZM8 32H7V32H8ZM238 8V7V7V8ZM262 293.872L262.445 294.768L263 294.492V293.872H262ZM262 326.127H263V325.507L262.445 325.231L262 326.127ZM262 356H261C261 368.703 250.703 379 238 379V380V381C251.807 381 263 369.807 263 356H262ZM238 380V379H32V380V381H238V380ZM32 380V379C19.2975 379 9 368.703 9 356H8H7C7 369.807 18.1929 381 32 381V380ZM8 356H9V326.127H8H7V356H8ZM8 326.127L8.44508 327.022C14.6982 323.915 19 317.461 19 310H18H17C17 316.673 13.1547 322.448 7.55492 325.231L8 326.127ZM18 310H19C19 302.539 14.6985 296.084 8.44506 292.977L8 293.872L7.55494 294.768C13.1548 297.551 17 303.327 17 310H18ZM8 293.872H9V32H8H7V293.872H8ZM8 32H9C9 19.2975 19.2975 9 32 9V8V7C18.1929 7 7 18.1929 7 32H8ZM32 8V9H238V8V7H32V8ZM238 8V9C250.703 9 261 19.2975 261 32H262H263C263 18.1929 251.807 7 238 7V8ZM262 32H261V293.872H262H263V32H262ZM262 293.872L261.555 292.977C255.302 296.084 251 302.539 251 310H252H253C253 303.327 256.845 297.551 262.445 294.768L262 293.872ZM252 310H251C251 317.461 255.302 323.915 261.555 327.022L262 326.127L262.445 325.231C256.845 322.448 253 316.673 253 310H252ZM262 326.127H261V356H262H263V326.127H262Z" fill="white" fill-opacity="0.4" mask="url(#path-4-inside-1_4056_35401)"/>
<defs>
<filter id="filter0_f_4056_35401" x="-216" y="-20" width="703" height="702" filterUnits="userSpaceOnUse" color-interpolation-filters="sRGB">
<feFlood flood-opacity="0" result="BackgroundImageFix"/>
<feBlend mode="normal" in="SourceGraphic" in2="BackgroundImageFix" result="shape"/>
<feGaussianBlur stdDeviation="100" result="effect1_foregroundBlur_4056_35401"/>
</filter>
</defs>
</svg>
