<svg width="270" height="388" viewBox="0 0 270 388" fill="none" xmlns="http://www.w3.org/2000/svg">
<path d="M135.027 148.607L135.027 147.077H135.027L135.027 148.607ZM171.052 184.63H172.582V184.63L171.052 184.63ZM171.052 237.954L172.582 237.954V237.954H171.052ZM162.045 246.96L162.045 248.49H162.045L162.045 246.96ZM153.04 237.973L154.569 237.969C154.568 237.126 153.883 236.443 153.04 236.443C152.196 236.443 151.511 237.126 151.51 237.969L153.04 237.973ZM144.035 246.96L144.035 248.49H144.035L144.035 246.96ZM135.028 237.954H133.498V237.954L135.028 237.954ZM135.028 237.948L136.558 237.949C136.558 237.543 136.397 237.154 136.11 236.867C135.823 236.58 135.434 236.418 135.028 236.418L135.028 237.948ZM135.027 237.948L135.027 236.418C134.621 236.418 134.232 236.58 133.945 236.867C133.658 237.154 133.497 237.543 133.497 237.949L135.027 237.948ZM135.027 237.954L136.557 237.954V237.954H135.027ZM126.021 246.96L126.021 248.49H126.021L126.021 246.96ZM117.014 237.973L118.544 237.969C118.542 237.126 117.858 236.443 117.014 236.443C116.17 236.443 115.486 237.126 115.484 237.969L117.014 237.973ZM108.008 246.96L108.008 248.49H108.008L108.008 246.96ZM99.0015 237.954H97.4716V237.954L99.0015 237.954ZM99.0015 184.63L97.4716 184.63V184.63H99.0015ZM135.027 148.607L135.027 150.137C154.077 150.137 169.521 165.58 169.522 184.63L171.052 184.63L172.582 184.63C172.58 163.89 155.767 147.077 135.027 147.077L135.027 148.607ZM171.052 184.63H169.522L169.522 237.954H171.052H172.582L172.582 184.63H171.052ZM171.052 237.954L169.522 237.954C169.522 242.083 166.174 245.43 162.045 245.43L162.045 246.96L162.045 248.49C167.864 248.489 172.582 243.773 172.582 237.954L171.052 237.954ZM162.045 246.96L162.046 245.43C157.922 245.429 154.578 242.091 154.569 237.969L153.04 237.973L151.51 237.976C151.522 243.784 156.235 248.489 162.045 248.49L162.045 246.96ZM153.04 237.973L151.51 237.969C151.501 242.091 148.158 245.43 144.035 245.43L144.035 246.96L144.035 248.49C149.846 248.489 154.557 243.784 154.569 237.976L153.04 237.973ZM144.035 246.96L144.035 245.43C139.906 245.43 136.558 242.082 136.558 237.954L135.028 237.954L133.498 237.954C133.498 243.773 138.216 248.489 144.035 248.49L144.035 246.96ZM135.028 237.954H136.558C136.558 237.951 136.558 237.95 136.558 237.949L135.028 237.948L133.498 237.947C133.498 237.95 133.498 237.953 133.498 237.954H135.028ZM135.028 237.948L135.028 236.418H135.027L135.027 237.948V239.478H135.028V237.948ZM135.027 237.948L133.497 237.949C133.497 237.95 133.497 237.951 133.497 237.954H135.027H136.557C136.557 237.953 136.557 237.95 136.557 237.947L135.027 237.948ZM135.027 237.954L133.497 237.954C133.497 242.083 130.15 245.43 126.021 245.43L126.021 246.96L126.021 248.49C131.839 248.489 136.556 243.773 136.557 237.954L135.027 237.954ZM126.021 246.96L126.021 245.43C121.897 245.43 118.553 242.091 118.544 237.969L117.014 237.973L115.484 237.976C115.496 243.785 120.21 248.489 126.021 248.49L126.021 246.96ZM117.014 237.973L115.484 237.969C115.476 242.091 112.132 245.43 108.008 245.43L108.008 246.96L108.008 248.49C113.82 248.489 118.532 243.784 118.544 237.976L117.014 237.973ZM108.008 246.96L108.008 245.43C103.879 245.429 100.532 242.082 100.531 237.954L99.0015 237.954L97.4716 237.954C97.4719 243.773 102.19 248.489 108.008 248.49L108.008 246.96ZM99.0015 237.954H100.531L100.531 184.63H99.0015H97.4716L97.4716 237.954H99.0015ZM99.0015 184.63L100.531 184.63C100.533 165.58 115.977 150.138 135.027 150.137L135.027 148.607L135.027 147.077C114.287 147.078 97.4732 163.89 97.4716 184.63L99.0015 184.63Z" fill="white" fill-opacity="0.1"/>
<path d="M130.597 184.667C129.804 184.667 129.162 185.32 129.162 186.126L130.597 186.126L129.162 186.128L129.162 186.162C129.162 186.179 129.162 186.2 129.163 186.226C129.165 186.278 129.168 186.348 129.173 186.434C129.184 186.605 129.206 186.841 129.248 187.12C129.331 187.671 129.499 188.431 129.85 189.209C130.203 189.991 130.759 190.835 131.636 191.483C132.529 192.143 133.668 192.535 135.063 192.535C136.457 192.535 137.596 192.143 138.489 191.483C139.366 190.835 139.923 189.991 140.275 189.209C140.626 188.431 140.795 187.671 140.877 187.12C140.919 186.841 140.941 186.605 140.952 186.434C140.958 186.348 140.96 186.278 140.962 186.226C140.963 186.2 140.963 186.179 140.964 186.162L140.964 186.128C140.964 186.127 140.964 186.126 139.528 186.126L140.964 186.126C140.964 185.32 140.321 184.667 139.528 184.667C138.737 184.667 138.095 185.318 138.092 186.122L138.092 186.138C138.091 186.158 138.09 186.194 138.087 186.244C138.08 186.344 138.067 186.495 138.039 186.679C137.982 187.056 137.872 187.534 137.665 187.993C137.459 188.45 137.178 188.843 136.8 189.123C136.437 189.391 135.901 189.618 135.063 189.618C134.225 189.618 133.689 189.391 133.326 189.123C132.947 188.843 132.666 188.45 132.46 187.993C132.254 187.534 132.143 187.056 132.086 186.679C132.058 186.495 132.045 186.344 132.039 186.244C132.035 186.194 132.034 186.158 132.033 186.138L132.033 186.122C132.031 185.318 131.389 184.667 130.597 184.667Z" fill="white" fill-opacity="0.1"/>
<path d="M149.978 170.58C153.857 170.58 157.003 173.725 157.003 177.604C157.003 181.484 153.857 184.63 149.978 184.63C146.098 184.63 142.952 181.484 142.952 177.604C142.952 173.725 146.098 170.58 149.978 170.58ZM151.599 172.017C149.609 172.017 147.996 173.63 147.996 175.619C147.996 177.609 149.609 179.222 151.599 179.222C153.588 179.221 155.201 177.608 155.201 175.619C155.201 173.63 153.588 172.017 151.599 172.017Z" fill="white" fill-opacity="0.1"/>
<path d="M119.716 170.58C123.596 170.58 126.741 173.725 126.741 177.604C126.741 181.484 123.596 184.63 119.716 184.63C115.836 184.63 112.691 181.484 112.691 177.604C112.692 173.725 115.836 170.58 119.716 170.58ZM120.977 172.017C118.987 172.017 117.374 173.63 117.374 175.619C117.374 177.609 118.987 179.222 120.977 179.222C122.966 179.221 124.579 177.608 124.579 175.619C124.579 173.63 122.966 172.017 120.977 172.017Z" fill="white" fill-opacity="0.1"/>
<path d="M176.478 44.1826L175.057 44.1826V47.2148L176.434 47.2148C177.039 47.2148 177.518 47.0781 177.869 46.8047C178.231 46.5312 178.411 46.165 178.411 45.7061C178.411 45.2275 178.24 44.8564 177.899 44.5928C177.557 44.3193 177.083 44.1826 176.478 44.1826ZM176.654 50.1152H175.057V53.6455H176.595C177.347 53.6455 177.923 53.4893 178.323 53.1768C178.734 52.8643 178.939 52.415 178.939 51.8291C178.939 51.292 178.734 50.8721 178.323 50.5693C177.913 50.2666 177.357 50.1152 176.654 50.1152ZM169.198 57L169.198 40.8281L178.411 40.8281C180.257 40.8281 181.698 41.1846 182.733 41.8975C183.768 42.6006 184.285 43.5869 184.285 44.8564C184.285 45.7549 183.983 46.5361 183.377 47.2002C182.772 47.8643 182.015 48.25 181.107 48.3574V48.4746C182.249 48.6016 183.182 49.0166 183.905 49.7197C184.637 50.4229 185.003 51.2822 185.003 52.2979C185.003 53.7139 184.427 54.8516 183.275 55.7109C182.132 56.5703 180.599 57 178.675 57L169.198 57Z" fill="white" fill-opacity="0.2"/>
<path d="M161.601 48.1523L167.563 57L160.517 57L156.474 50.8623H156.357V57L150.351 57L150.351 40.8281L156.357 40.8281V46.7314H156.474L160.415 40.8281L167.036 40.8281L161.601 48.1523Z" fill="white" fill-opacity="0.2"/>
<path d="M134.434 62.9326L132.296 62.9326V58.4648H133.453C134.303 58.4648 134.923 58.3818 135.313 58.2158C135.714 58.0596 135.914 57.8008 135.914 57.4395C135.914 57.293 135.89 57.1465 135.841 57L130.538 40.8281L137.203 40.8281L139.664 52.6934H139.781L142.227 40.8281L148.57 40.8281L143.751 56.6191C143.067 58.8652 141.998 60.4766 140.543 61.4531C139.098 62.4395 137.061 62.9326 134.434 62.9326Z" fill="white" fill-opacity="0.2"/>
<path d="M120.891 52.9424C121.643 52.9424 122.234 52.6396 122.663 52.0342C123.093 51.4189 123.308 50.5498 123.308 49.4268C123.308 48.333 123.088 47.4736 122.649 46.8486C122.219 46.2236 121.633 45.9111 120.891 45.9111C120.139 45.9111 119.543 46.2236 119.104 46.8486C118.674 47.4736 118.459 48.333 118.459 49.4268C118.459 50.5498 118.669 51.4189 119.089 52.0342C119.519 52.6396 120.119 52.9424 120.891 52.9424ZM116.745 44.9443H116.863C117.868 42.8252 119.651 41.7656 122.209 41.7656C124.406 41.7656 126.164 42.4395 127.483 43.7871C128.801 45.125 129.46 46.9316 129.46 49.207C129.46 51.7461 128.703 53.748 127.19 55.2129C125.686 56.6777 123.64 57.4102 121.052 57.4102C118.288 57.4102 116.14 56.6045 114.607 54.9932C113.073 53.3721 112.307 51.0186 112.307 47.9326C112.307 45.6768 112.527 43.7285 112.966 42.0879C113.406 40.4375 114.045 39.124 114.885 38.1475C115.725 37.1709 116.692 36.4482 117.785 35.9795C118.889 35.5107 120.154 35.2617 121.579 35.2324L124.114 35.1738C124.377 35.1641 124.646 35.1543 124.919 35.1445C125.193 35.125 125.442 35.1055 125.666 35.0859C125.901 35.0664 126.125 35.0469 126.34 35.0273C126.565 34.998 126.765 34.9736 126.941 34.9541C127.126 34.9248 127.297 34.9004 127.453 34.8809C127.61 34.8516 127.746 34.8271 127.864 34.8076C127.981 34.7881 128.078 34.7734 128.156 34.7637C128.244 34.7441 128.308 34.7295 128.347 34.7197L128.406 34.7051V39.1143L128.347 39.1289C128.318 39.1387 128.269 39.1533 128.2 39.1729C128.132 39.1826 128.049 39.1973 127.951 39.2168C127.864 39.2363 127.751 39.2607 127.615 39.29C127.478 39.3096 127.331 39.334 127.175 39.3633C127.029 39.3828 126.853 39.4072 126.648 39.4365C126.452 39.4561 126.247 39.4756 126.032 39.4951C125.827 39.5049 125.593 39.5195 125.329 39.5391C125.075 39.5488 124.812 39.5586 124.538 39.5684L122.209 39.627C120.481 39.666 119.192 40.1201 118.342 40.9893C117.492 41.8584 116.96 43.1768 116.745 44.9443Z" fill="white" fill-opacity="0.2"/>
<path d="M95.2539 57.5859C92.7441 57.5859 90.6836 56.9414 89.0723 55.6523C87.4707 54.3633 86.6602 52.708 86.6406 50.6865L92.2217 50.6865C92.3486 51.3408 92.6953 51.873 93.2617 52.2832C93.8379 52.6934 94.5166 52.8984 95.2979 52.8984C96.1768 52.8984 96.8848 52.6201 97.4219 52.0635C97.9688 51.5068 98.2422 50.7891 98.2422 49.9102C98.2422 48.9824 97.9736 48.2354 97.4365 47.6689C96.8994 47.1025 96.1865 46.8193 95.2979 46.8193C94.7021 46.8193 94.1504 46.9561 93.6426 47.2295C93.1348 47.4932 92.7246 47.8691 92.4121 48.3574L86.9775 48.3574L87.915 35.8623L102.695 35.8623V40.5498L92.6904 40.5498L92.3682 45.2373H92.4854C92.876 44.4365 93.4717 43.8066 94.2725 43.3477C95.083 42.8887 96.0449 42.6592 97.1582 42.6592C99.1602 42.6592 100.811 43.3281 102.109 44.666C103.408 45.9941 104.058 47.6934 104.058 49.7637C104.058 52.1172 103.252 54.0117 101.641 55.4473C100.029 56.873 97.9004 57.5859 95.2539 57.5859Z" fill="white" fill-opacity="0.2"/>
<path d="M195.333 354H191.981V341.438H195.333V349.289H195.426L200.418 341.438H203.77V354H200.418V346.055H200.325L195.333 354Z" fill="white" fill-opacity="0.2"/>
<path d="M171.914 354V341.438H175.324V351.41H178.828V341.438H182.238V351.41H185.742V341.438H189.152V354H171.914Z" fill="white" fill-opacity="0.2"/>
<path d="M165.674 354V341.438H169.084V354H165.674ZM159.018 347.59H157.131V351.445H159.018C159.635 351.445 160.127 351.27 160.494 350.918C160.869 350.559 161.057 350.09 161.057 349.512C161.057 348.934 160.869 348.469 160.494 348.117C160.127 347.766 159.635 347.59 159.018 347.59ZM153.721 354V341.438H157.131V345.07H159.58C161.065 345.07 162.244 345.473 163.119 346.277C164.002 347.082 164.444 348.168 164.444 349.535C164.444 350.902 164.002 351.988 163.119 352.793C162.244 353.598 161.065 354 159.58 354H153.721Z" fill="white" fill-opacity="0.2"/>
<path d="M146.169 341.238C147.763 341.238 149.017 341.812 149.931 342.961C150.853 344.109 151.314 345.695 151.314 347.719C151.314 349.734 150.86 351.32 149.954 352.477C149.048 353.625 147.806 354.199 146.228 354.199C145.329 354.199 144.536 353.996 143.849 353.59C143.169 353.176 142.661 352.609 142.325 351.891H142.255V358.102H138.833V341.438H142.208V343.629H142.278C142.622 342.879 143.13 342.293 143.802 341.871C144.482 341.449 145.271 341.238 146.169 341.238ZM145.021 351.445C145.872 351.445 146.548 351.109 147.048 350.438C147.556 349.766 147.81 348.859 147.81 347.719C147.81 346.578 147.556 345.672 147.048 345C146.548 344.32 145.872 343.98 145.021 343.98C144.185 343.98 143.513 344.324 143.005 345.012C142.497 345.691 142.243 346.594 142.243 347.719C142.243 348.852 142.493 349.758 142.993 350.438C143.501 351.109 144.177 351.445 145.021 351.445Z" fill="white" fill-opacity="0.2"/>
<path d="M136.473 344.016H131.129V354H127.719V341.438H136.473V344.016Z" fill="white" fill-opacity="0.2"/>
<path d="M121.479 354V341.438H124.89V354H121.479ZM114.823 347.59H112.936V351.445H114.823C115.44 351.445 115.932 351.27 116.3 350.918C116.675 350.559 116.862 350.09 116.862 349.512C116.862 348.934 116.675 348.469 116.3 348.117C115.932 347.766 115.44 347.59 114.823 347.59ZM109.526 354V341.438H112.936V345.07H115.386C116.87 345.07 118.05 345.473 118.925 346.277C119.807 347.082 120.249 348.168 120.249 349.535C120.249 350.902 119.807 351.988 118.925 352.793C118.05 353.598 116.87 354 115.386 354H109.526Z" fill="white" fill-opacity="0.2"/>
<path d="M101.552 354.27C99.9197 354.27 98.6033 353.895 97.6033 353.145C96.6033 352.387 96.0447 351.344 95.9275 350.016H99.1853C99.4822 351.086 100.271 351.621 101.552 351.621C102.224 351.621 102.744 351.484 103.111 351.211C103.478 350.938 103.662 350.57 103.662 350.109C103.662 349.148 102.963 348.668 101.564 348.668H99.8298V346.441H101.47C102.689 346.441 103.299 346 103.299 345.117C103.299 344.695 103.142 344.363 102.83 344.121C102.525 343.871 102.08 343.746 101.494 343.746C100.892 343.746 100.408 343.875 100.041 344.133C99.6814 344.383 99.4626 344.746 99.3845 345.223H96.1619C96.2869 343.965 96.8181 342.977 97.7556 342.258C98.7009 341.531 99.9392 341.168 101.47 341.168C103.135 341.168 104.408 341.48 105.291 342.105C106.181 342.73 106.627 343.609 106.627 344.742C106.627 345.375 106.459 345.926 106.123 346.395C105.787 346.863 105.326 347.18 104.74 347.344V347.438C105.498 347.633 106.076 347.973 106.474 348.457C106.873 348.941 107.072 349.535 107.072 350.238C107.072 351.48 106.576 352.465 105.584 353.191C104.599 353.91 103.256 354.27 101.552 354.27Z" fill="white" fill-opacity="0.2"/>
<path d="M92.4303 352.535C91.3131 353.691 89.7975 354.27 87.8834 354.27C85.9694 354.27 84.4537 353.688 83.3365 352.523C82.2194 351.359 81.6608 349.754 81.6608 347.707C81.6608 345.684 82.2233 344.09 83.3483 342.926C84.4811 341.754 85.9928 341.168 87.8834 341.168C89.7819 341.168 91.2936 341.754 92.4186 342.926C93.5436 344.09 94.1061 345.684 94.1061 347.707C94.1061 349.762 93.5475 351.371 92.4303 352.535ZM87.8834 351.656C88.7272 351.656 89.3951 351.312 89.8873 350.625C90.3795 349.938 90.6256 348.969 90.6256 347.719C90.6256 346.484 90.3795 345.52 89.8873 344.824C89.3951 344.129 88.7272 343.781 87.8834 343.781C87.0397 343.781 86.3678 344.129 85.8678 344.824C85.3756 345.52 85.1295 346.484 85.1295 347.719C85.1295 348.969 85.3756 349.938 85.8678 350.625C86.36 351.312 87.0319 351.656 87.8834 351.656Z" fill="white" fill-opacity="0.2"/>
<path d="M74.5659 341.238C76.1597 341.238 77.4136 341.812 78.3276 342.961C79.2495 344.109 79.7104 345.695 79.7104 347.719C79.7104 349.734 79.2573 351.32 78.3511 352.477C77.4448 353.625 76.2026 354.199 74.6245 354.199C73.7261 354.199 72.9331 353.996 72.2456 353.59C71.5659 353.176 71.0581 352.609 70.7222 351.891H70.6519V358.102H67.23V341.438H70.605V343.629H70.6753C71.019 342.879 71.5269 342.293 72.1987 341.871C72.8784 341.449 73.6675 341.238 74.5659 341.238ZM73.4175 351.445C74.269 351.445 74.9448 351.109 75.4448 350.438C75.9526 349.766 76.2065 348.859 76.2065 347.719C76.2065 346.578 75.9526 345.672 75.4448 345C74.9448 344.32 74.269 343.98 73.4175 343.98C72.5815 343.98 71.9097 344.324 71.4019 345.012C70.894 345.691 70.6401 346.594 70.6401 347.719C70.6401 348.852 70.8901 349.758 71.3901 350.438C71.8979 351.109 72.5737 351.445 73.4175 351.445Z" fill="white" fill-opacity="0.2"/>
<path d="M157.302 328H154.091V315.438H158.521L161.802 323.641H161.884L165.165 315.438H169.548V328H166.337V319.598H166.255L162.997 327.297H160.63L157.384 319.598H157.302V328Z" fill="white" fill-opacity="0.2"/>
<path d="M145.801 317.699C145.059 317.699 144.438 317.953 143.938 318.461C143.445 318.969 143.168 319.617 143.105 320.406H148.438C148.398 319.602 148.137 318.949 147.652 318.449C147.176 317.949 146.559 317.699 145.801 317.699ZM148.484 324.156H151.625C151.438 325.391 150.82 326.387 149.773 327.145C148.734 327.895 147.441 328.27 145.895 328.27C143.965 328.27 142.449 327.691 141.348 326.535C140.254 325.379 139.707 323.793 139.707 321.777C139.707 319.77 140.254 318.168 141.348 316.973C142.441 315.77 143.914 315.168 145.766 315.168C147.586 315.168 149.035 315.738 150.113 316.879C151.191 318.02 151.73 319.547 151.73 321.461V322.504H143.07V322.715C143.07 323.613 143.332 324.344 143.855 324.906C144.387 325.461 145.086 325.738 145.953 325.738C146.578 325.738 147.117 325.598 147.57 325.316C148.023 325.027 148.328 324.641 148.484 324.156Z" fill="white" fill-opacity="0.2"/>
<path d="M138.296 331.258H135.179V328H119.253V315.438H122.663V325.41H126.167V315.438H129.577V325.41H133.081V315.438H136.491V325.41H138.296V331.258Z" fill="white" fill-opacity="0.2"/>
<path d="M112.58 328V316.562H112.439L104.763 328H101.353V311.09H104.881V322.539H105.021L112.697 311.09H116.107V328H112.58Z" fill="white" fill-opacity="0.2"/>
</svg>
