<svg width="270" height="388" viewBox="0 0 270 388" fill="none" xmlns="http://www.w3.org/2000/svg">
<path d="M135.027 148.607L135.027 147.077H135.027L135.027 148.607ZM171.052 184.63H172.582V184.63L171.052 184.63ZM171.052 237.954L172.582 237.954V237.954H171.052ZM162.045 246.96L162.045 248.49H162.045L162.045 246.96ZM153.04 237.973L154.569 237.969C154.568 237.126 153.883 236.443 153.04 236.443C152.196 236.443 151.511 237.126 151.51 237.969L153.04 237.973ZM144.035 246.96L144.035 248.49H144.035L144.035 246.96ZM135.028 237.954H133.498V237.954L135.028 237.954ZM135.028 237.948L136.558 237.949C136.558 237.543 136.397 237.154 136.11 236.867C135.823 236.58 135.434 236.418 135.028 236.418L135.028 237.948ZM135.027 237.948L135.027 236.418C134.621 236.418 134.232 236.58 133.945 236.867C133.658 237.154 133.497 237.543 133.497 237.949L135.027 237.948ZM135.027 237.954L136.557 237.954V237.954H135.027ZM126.021 246.96L126.021 248.49H126.021L126.021 246.96ZM117.014 237.973L118.544 237.969C118.542 237.126 117.858 236.443 117.014 236.443C116.17 236.443 115.486 237.126 115.484 237.969L117.014 237.973ZM108.008 246.96L108.008 248.49H108.008L108.008 246.96ZM99.0015 237.954H97.4716V237.954L99.0015 237.954ZM99.0015 184.63L97.4716 184.63V184.63H99.0015ZM135.027 148.607L135.027 150.137C154.077 150.137 169.521 165.58 169.522 184.63L171.052 184.63L172.582 184.63C172.58 163.89 155.767 147.077 135.027 147.077L135.027 148.607ZM171.052 184.63H169.522L169.522 237.954H171.052H172.582L172.582 184.63H171.052ZM171.052 237.954L169.522 237.954C169.522 242.083 166.174 245.43 162.045 245.43L162.045 246.96L162.045 248.49C167.864 248.489 172.582 243.773 172.582 237.954L171.052 237.954ZM162.045 246.96L162.046 245.43C157.922 245.429 154.578 242.091 154.569 237.969L153.04 237.973L151.51 237.976C151.522 243.784 156.235 248.489 162.045 248.49L162.045 246.96ZM153.04 237.973L151.51 237.969C151.501 242.091 148.158 245.43 144.035 245.43L144.035 246.96L144.035 248.49C149.846 248.489 154.557 243.784 154.569 237.976L153.04 237.973ZM144.035 246.96L144.035 245.43C139.906 245.43 136.558 242.082 136.558 237.954L135.028 237.954L133.498 237.954C133.498 243.773 138.216 248.489 144.035 248.49L144.035 246.96ZM135.028 237.954H136.558C136.558 237.951 136.558 237.95 136.558 237.949L135.028 237.948L133.498 237.947C133.498 237.95 133.498 237.953 133.498 237.954H135.028ZM135.028 237.948L135.028 236.418H135.027L135.027 237.948V239.478H135.028V237.948ZM135.027 237.948L133.497 237.949C133.497 237.95 133.497 237.951 133.497 237.954H135.027H136.557C136.557 237.953 136.557 237.95 136.557 237.947L135.027 237.948ZM135.027 237.954L133.497 237.954C133.497 242.083 130.15 245.43 126.021 245.43L126.021 246.96L126.021 248.49C131.839 248.489 136.556 243.773 136.557 237.954L135.027 237.954ZM126.021 246.96L126.021 245.43C121.897 245.43 118.553 242.091 118.544 237.969L117.014 237.973L115.484 237.976C115.496 243.785 120.21 248.489 126.021 248.49L126.021 246.96ZM117.014 237.973L115.484 237.969C115.476 242.091 112.132 245.43 108.008 245.43L108.008 246.96L108.008 248.49C113.82 248.489 118.532 243.784 118.544 237.976L117.014 237.973ZM108.008 246.96L108.008 245.43C103.879 245.429 100.532 242.082 100.531 237.954L99.0015 237.954L97.4716 237.954C97.4719 243.773 102.19 248.489 108.008 248.49L108.008 246.96ZM99.0015 237.954H100.531L100.531 184.63H99.0015H97.4716L97.4716 237.954H99.0015ZM99.0015 184.63L100.531 184.63C100.533 165.58 115.977 150.138 135.027 150.137L135.027 148.607L135.027 147.077C114.287 147.078 97.4732 163.89 97.4716 184.63L99.0015 184.63Z" fill="white" fill-opacity="0.1"/>
<path d="M130.597 184.667C129.804 184.667 129.162 185.32 129.162 186.126L130.597 186.126L129.162 186.128L129.162 186.162C129.162 186.179 129.162 186.2 129.163 186.226C129.165 186.278 129.168 186.348 129.173 186.434C129.184 186.605 129.206 186.841 129.248 187.12C129.331 187.671 129.499 188.431 129.85 189.209C130.203 189.991 130.759 190.835 131.636 191.483C132.529 192.143 133.668 192.535 135.063 192.535C136.457 192.535 137.596 192.143 138.489 191.483C139.366 190.835 139.923 189.991 140.275 189.209C140.626 188.431 140.795 187.671 140.877 187.12C140.919 186.841 140.941 186.605 140.952 186.434C140.958 186.348 140.96 186.278 140.962 186.226C140.963 186.2 140.963 186.179 140.964 186.162L140.964 186.128C140.964 186.127 140.964 186.126 139.528 186.126L140.964 186.126C140.964 185.32 140.321 184.667 139.528 184.667C138.737 184.667 138.095 185.318 138.092 186.122L138.092 186.138C138.091 186.158 138.09 186.194 138.087 186.244C138.08 186.344 138.067 186.495 138.039 186.679C137.982 187.056 137.872 187.534 137.665 187.993C137.459 188.45 137.178 188.843 136.8 189.123C136.437 189.391 135.901 189.618 135.063 189.618C134.225 189.618 133.689 189.391 133.326 189.123C132.947 188.843 132.666 188.45 132.46 187.993C132.254 187.534 132.143 187.056 132.086 186.679C132.058 186.495 132.045 186.344 132.039 186.244C132.035 186.194 132.034 186.158 132.033 186.138L132.033 186.122C132.031 185.318 131.389 184.667 130.597 184.667Z" fill="white" fill-opacity="0.1"/>
<path d="M149.978 170.58C153.857 170.58 157.003 173.725 157.003 177.604C157.003 181.484 153.857 184.63 149.978 184.63C146.098 184.63 142.952 181.484 142.952 177.604C142.952 173.725 146.098 170.58 149.978 170.58ZM151.599 172.017C149.609 172.017 147.996 173.63 147.996 175.619C147.996 177.609 149.609 179.222 151.599 179.222C153.588 179.221 155.201 177.608 155.201 175.619C155.201 173.63 153.588 172.017 151.599 172.017Z" fill="white" fill-opacity="0.1"/>
<path d="M119.716 170.58C123.596 170.58 126.741 173.725 126.741 177.604C126.741 181.484 123.596 184.63 119.716 184.63C115.836 184.63 112.691 181.484 112.691 177.604C112.692 173.725 115.836 170.58 119.716 170.58ZM120.977 172.017C118.987 172.017 117.374 173.63 117.374 175.619C117.374 177.609 118.987 179.222 120.977 179.222C122.966 179.221 124.579 177.608 124.579 175.619C124.579 173.63 122.966 172.017 120.977 172.017Z" fill="white" fill-opacity="0.1"/>
<path d="M176.478 44.1826L175.057 44.1826V47.2148L176.434 47.2148C177.039 47.2148 177.518 47.0781 177.869 46.8047C178.231 46.5312 178.411 46.165 178.411 45.7061C178.411 45.2275 178.24 44.8564 177.899 44.5928C177.557 44.3193 177.083 44.1826 176.478 44.1826ZM176.654 50.1152H175.057V53.6455H176.595C177.347 53.6455 177.923 53.4893 178.323 53.1768C178.734 52.8643 178.939 52.415 178.939 51.8291C178.939 51.292 178.734 50.8721 178.323 50.5693C177.913 50.2666 177.357 50.1152 176.654 50.1152ZM169.198 57L169.198 40.8281L178.411 40.8281C180.257 40.8281 181.698 41.1846 182.733 41.8975C183.768 42.6006 184.285 43.5869 184.285 44.8564C184.285 45.7549 183.983 46.5361 183.377 47.2002C182.772 47.8643 182.015 48.25 181.107 48.3574V48.4746C182.249 48.6016 183.182 49.0166 183.905 49.7197C184.637 50.4229 185.003 51.2822 185.003 52.2979C185.003 53.7139 184.427 54.8516 183.275 55.7109C182.132 56.5703 180.599 57 178.675 57L169.198 57Z" fill="white" fill-opacity="0.2"/>
<path d="M161.601 48.1523L167.563 57L160.517 57L156.474 50.8623H156.357V57L150.351 57L150.351 40.8281L156.357 40.8281V46.7314H156.474L160.415 40.8281L167.036 40.8281L161.601 48.1523Z" fill="white" fill-opacity="0.2"/>
<path d="M134.434 62.9326L132.296 62.9326V58.4648H133.453C134.303 58.4648 134.923 58.3818 135.313 58.2158C135.714 58.0596 135.914 57.8008 135.914 57.4395C135.914 57.293 135.89 57.1465 135.841 57L130.538 40.8281L137.203 40.8281L139.664 52.6934H139.781L142.227 40.8281L148.57 40.8281L143.751 56.6191C143.067 58.8652 141.998 60.4766 140.543 61.4531C139.098 62.4395 137.061 62.9326 134.434 62.9326Z" fill="white" fill-opacity="0.2"/>
<path d="M120.891 52.9424C121.643 52.9424 122.234 52.6396 122.663 52.0342C123.093 51.4189 123.308 50.5498 123.308 49.4268C123.308 48.333 123.088 47.4736 122.649 46.8486C122.219 46.2236 121.633 45.9111 120.891 45.9111C120.139 45.9111 119.543 46.2236 119.104 46.8486C118.674 47.4736 118.459 48.333 118.459 49.4268C118.459 50.5498 118.669 51.4189 119.089 52.0342C119.519 52.6396 120.119 52.9424 120.891 52.9424ZM116.745 44.9443H116.863C117.868 42.8252 119.651 41.7656 122.209 41.7656C124.406 41.7656 126.164 42.4395 127.483 43.7871C128.801 45.125 129.46 46.9316 129.46 49.207C129.46 51.7461 128.703 53.748 127.19 55.2129C125.686 56.6777 123.64 57.4102 121.052 57.4102C118.288 57.4102 116.14 56.6045 114.607 54.9932C113.073 53.3721 112.307 51.0186 112.307 47.9326C112.307 45.6768 112.527 43.7285 112.966 42.0879C113.406 40.4375 114.045 39.124 114.885 38.1475C115.725 37.1709 116.692 36.4482 117.785 35.9795C118.889 35.5107 120.154 35.2617 121.579 35.2324L124.114 35.1738C124.377 35.1641 124.646 35.1543 124.919 35.1445C125.193 35.125 125.442 35.1055 125.666 35.0859C125.901 35.0664 126.125 35.0469 126.34 35.0273C126.565 34.998 126.765 34.9736 126.941 34.9541C127.126 34.9248 127.297 34.9004 127.453 34.8809C127.61 34.8516 127.746 34.8271 127.864 34.8076C127.981 34.7881 128.078 34.7734 128.156 34.7637C128.244 34.7441 128.308 34.7295 128.347 34.7197L128.406 34.7051V39.1143L128.347 39.1289C128.318 39.1387 128.269 39.1533 128.2 39.1729C128.132 39.1826 128.049 39.1973 127.951 39.2168C127.864 39.2363 127.751 39.2607 127.615 39.29C127.478 39.3096 127.331 39.334 127.175 39.3633C127.029 39.3828 126.853 39.4072 126.648 39.4365C126.452 39.4561 126.247 39.4756 126.032 39.4951C125.827 39.5049 125.593 39.5195 125.329 39.5391C125.075 39.5488 124.812 39.5586 124.538 39.5684L122.209 39.627C120.481 39.666 119.192 40.1201 118.342 40.9893C117.492 41.8584 116.96 43.1768 116.745 44.9443Z" fill="white" fill-opacity="0.2"/>
<path d="M95.2539 57.5859C92.7441 57.5859 90.6836 56.9414 89.0723 55.6523C87.4707 54.3633 86.6602 52.708 86.6406 50.6865L92.2217 50.6865C92.3486 51.3408 92.6953 51.873 93.2617 52.2832C93.8379 52.6934 94.5166 52.8984 95.2979 52.8984C96.1768 52.8984 96.8848 52.6201 97.4219 52.0635C97.9688 51.5068 98.2422 50.7891 98.2422 49.9102C98.2422 48.9824 97.9736 48.2354 97.4365 47.6689C96.8994 47.1025 96.1865 46.8193 95.2979 46.8193C94.7021 46.8193 94.1504 46.9561 93.6426 47.2295C93.1348 47.4932 92.7246 47.8691 92.4121 48.3574L86.9775 48.3574L87.915 35.8623L102.695 35.8623V40.5498L92.6904 40.5498L92.3682 45.2373H92.4854C92.876 44.4365 93.4717 43.8066 94.2725 43.3477C95.083 42.8887 96.0449 42.6592 97.1582 42.6592C99.1602 42.6592 100.811 43.3281 102.109 44.666C103.408 45.9941 104.058 47.6934 104.058 49.7637C104.058 52.1172 103.252 54.0117 101.641 55.4473C100.029 56.873 97.9004 57.5859 95.2539 57.5859Z" fill="white" fill-opacity="0.2"/>
<path d="M213.915 354L213.915 341.672H216.434L216.434 351.996H220.571L220.571 341.672H223.09L223.09 351.996H227.227L227.227 341.672H229.747L229.747 354H213.915Z" fill="white" fill-opacity="0.2"/>
<path d="M208.316 354L208.316 341.672H210.824L210.824 354H208.316ZM201.988 347.461H199.855L199.855 352.008H201.988C202.715 352.008 203.293 351.801 203.723 351.387C204.16 350.965 204.379 350.414 204.379 349.734C204.379 349.047 204.16 348.496 203.723 348.082C203.285 347.668 202.707 347.461 201.988 347.461ZM197.336 354L197.336 341.672H199.855V345.48H202.211C203.641 345.48 204.777 345.867 205.621 346.641C206.473 347.406 206.898 348.438 206.898 349.734C206.898 351.039 206.473 352.078 205.621 352.852C204.777 353.617 203.641 354 202.211 354H197.336Z" fill="white" fill-opacity="0.2"/>
<path d="M189.605 341.473C191.175 341.473 192.433 342.047 193.378 343.195C194.323 344.344 194.796 345.891 194.796 347.836C194.796 349.781 194.327 351.332 193.39 352.488C192.452 353.637 191.206 354.211 189.652 354.211C188.777 354.211 187.999 354.012 187.32 353.613C186.648 353.215 186.132 352.668 185.773 351.973H185.714V358.078H183.183L183.183 341.672H185.632V343.793H185.679C186.046 343.074 186.573 342.508 187.261 342.094C187.948 341.68 188.73 341.473 189.605 341.473ZM188.937 352.066C189.937 352.066 190.73 351.688 191.316 350.93C191.902 350.164 192.195 349.133 192.195 347.836C192.195 346.547 191.902 345.52 191.316 344.754C190.73 343.988 189.937 343.605 188.937 343.605C187.968 343.605 187.187 343.992 186.593 344.766C185.999 345.539 185.702 346.562 185.702 347.836C185.702 349.117 185.995 350.145 186.581 350.918C187.175 351.684 187.96 352.066 188.937 352.066Z" fill="white" fill-opacity="0.2"/>
<path d="M180.69 343.676H175.042L175.042 354H172.522L172.522 341.672H180.69V343.676Z" fill="white" fill-opacity="0.2"/>
<path d="M166.924 354L166.924 341.672H169.432L169.432 354H166.924ZM160.596 347.461H158.463L158.463 352.008H160.596C161.322 352.008 161.9 351.801 162.33 351.387C162.767 350.965 162.986 350.414 162.986 349.734C162.986 349.047 162.767 348.496 162.33 348.082C161.892 347.668 161.314 347.461 160.596 347.461ZM155.943 354L155.943 341.672H158.463V345.48H160.818C162.248 345.48 163.385 345.867 164.228 346.641C165.08 347.406 165.506 348.438 165.506 349.734C165.506 351.039 165.08 352.078 164.228 352.852C163.385 353.617 162.248 354 160.818 354H155.943Z" fill="white" fill-opacity="0.2"/>
<path d="M148.318 354.234C146.872 354.234 145.685 353.902 144.755 353.238C143.833 352.574 143.318 351.676 143.208 350.543H145.704C145.829 351.074 146.118 351.484 146.572 351.773C147.025 352.055 147.607 352.195 148.318 352.195C149.115 352.195 149.732 352.027 150.169 351.691C150.615 351.355 150.837 350.91 150.837 350.355C150.837 349.16 150.001 348.562 148.329 348.562H146.525V346.699H148.294C149.732 346.699 150.45 346.16 150.45 345.082C150.45 344.59 150.271 344.199 149.911 343.91C149.552 343.613 149.025 343.465 148.329 343.465C147.65 343.465 147.095 343.602 146.665 343.875C146.236 344.148 145.978 344.527 145.892 345.012H143.466C143.599 343.91 144.095 343.043 144.954 342.41C145.822 341.77 146.943 341.449 148.318 341.449C149.786 341.449 150.919 341.754 151.716 342.363C152.521 342.965 152.923 343.789 152.923 344.836C152.923 345.469 152.743 346.027 152.384 346.512C152.025 346.996 151.548 347.312 150.954 347.461V347.555C151.736 347.734 152.329 348.066 152.736 348.551C153.15 349.035 153.357 349.633 153.357 350.344C153.357 351.516 152.896 352.457 151.974 353.168C151.06 353.879 149.841 354.234 148.318 354.234Z" fill="white" fill-opacity="0.2"/>
<path d="M139.755 352.523C138.692 353.664 137.274 354.234 135.501 354.234C133.727 354.234 132.309 353.664 131.247 352.523C130.184 351.375 129.653 349.812 129.653 347.836C129.653 345.867 130.184 344.312 131.247 343.172C132.309 342.023 133.727 341.449 135.501 341.449C137.274 341.449 138.692 342.023 139.755 343.172C140.817 344.312 141.348 345.867 141.348 347.836C141.348 349.812 140.817 351.375 139.755 352.523ZM135.501 352.148C136.508 352.148 137.305 351.77 137.891 351.012C138.477 350.254 138.77 349.195 138.77 347.836C138.77 346.484 138.473 345.43 137.88 344.672C137.294 343.914 136.501 343.535 135.501 343.535C134.501 343.535 133.704 343.914 133.11 344.672C132.524 345.43 132.231 346.484 132.231 347.836C132.231 349.195 132.524 350.254 133.11 351.012C133.704 351.77 134.501 352.148 135.501 352.148Z" fill="white" fill-opacity="0.2"/>
<path d="M122.461 341.473C124.031 341.473 125.289 342.047 126.234 343.195C127.18 344.344 127.652 345.891 127.652 347.836C127.652 349.781 127.184 351.332 126.246 352.488C125.309 353.637 124.063 354.211 122.508 354.211C121.633 354.211 120.855 354.012 120.176 353.613C119.504 353.215 118.988 352.668 118.629 351.973H118.57L118.57 358.078H116.039L116.039 341.672H118.488V343.793H118.535C118.902 343.074 119.43 342.508 120.117 342.094C120.805 341.68 121.586 341.473 122.461 341.473ZM121.793 352.066C122.793 352.066 123.586 351.688 124.172 350.93C124.758 350.164 125.051 349.133 125.051 347.836C125.051 346.547 124.758 345.52 124.172 344.754C123.586 343.988 122.793 343.605 121.793 343.605C120.824 343.605 120.043 343.992 119.449 344.766C118.855 345.539 118.559 346.562 118.559 347.836C118.559 349.117 118.852 350.145 119.438 350.918C120.031 351.684 120.816 352.066 121.793 352.066Z" fill="white" fill-opacity="0.2"/>
<path d="M102.1 352.207C102.991 352.207 103.737 351.938 104.339 351.398C104.948 350.852 105.253 350.18 105.253 349.383V348.41L102.218 348.598C101.46 348.652 100.874 348.84 100.46 349.16C100.053 349.473 99.8503 349.895 99.8503 350.426C99.8503 350.965 100.053 351.398 100.46 351.727C100.874 352.047 101.421 352.207 102.1 352.207ZM101.397 354.211C100.186 354.211 99.198 353.867 98.4324 353.18C97.6746 352.492 97.2957 351.598 97.2957 350.496C97.2957 349.418 97.6941 348.562 98.491 347.93C99.2878 347.289 100.417 346.93 101.878 346.852L105.253 346.652L105.253 345.703C105.253 345.016 105.034 344.48 104.596 344.098C104.159 343.707 103.553 343.512 102.78 343.512C102.061 343.512 101.475 343.672 101.022 343.992C100.577 344.312 100.296 344.754 100.178 345.316H97.7878C97.8582 344.176 98.3503 343.246 99.2644 342.527C100.178 341.809 101.382 341.449 102.874 341.449C104.366 341.449 105.553 341.816 106.436 342.551C107.327 343.285 107.772 344.27 107.772 345.504L107.772 354H105.346L105.346 351.973H105.288C104.936 352.652 104.401 353.195 103.682 353.602C102.971 354.008 102.21 354.211 101.397 354.211Z" fill="white" fill-opacity="0.2"/>
<path d="M92.1544 354L92.1544 348.633H86.5763L86.5763 354H84.0568L84.0568 341.672H86.5763L86.5763 346.641H92.1544L92.1544 341.672H94.674L94.674 354H92.1544Z" fill="white" fill-opacity="0.2"/>
<path d="M76.3992 345.621H73.9617C73.7898 345.012 73.4617 344.516 72.9773 344.133C72.4929 343.75 71.8757 343.559 71.1257 343.559C70.1492 343.559 69.364 343.949 68.7703 344.73C68.1843 345.504 67.8914 346.539 67.8914 347.836C67.8914 349.164 68.1843 350.211 68.7703 350.977C69.364 351.734 70.157 352.113 71.1492 352.113C71.8914 352.113 72.5046 351.938 72.989 351.586C73.4734 351.227 73.8054 350.723 73.9851 350.074H76.4226C76.2429 351.324 75.6726 352.332 74.7117 353.098C73.7585 353.855 72.5632 354.234 71.1257 354.234C69.3523 354.234 67.9421 353.66 66.8953 352.512C65.8484 351.363 65.325 349.805 65.325 347.836C65.325 345.898 65.8484 344.352 66.8953 343.195C67.95 342.031 69.3523 341.449 71.1023 341.449C72.5632 341.449 73.7625 341.848 74.7 342.645C75.6453 343.434 76.2117 344.426 76.3992 345.621Z" fill="white" fill-opacity="0.2"/>
<path d="M57.1837 352.207C58.0743 352.207 58.8204 351.938 59.422 351.398C60.0314 350.852 60.3361 350.18 60.3361 349.383V348.41L57.3009 348.598C56.5431 348.652 55.9572 348.84 55.5431 349.16C55.1368 349.473 54.9337 349.895 54.9337 350.426C54.9337 350.965 55.1368 351.398 55.5431 351.727C55.9572 352.047 56.504 352.207 57.1837 352.207ZM56.4806 354.211C55.2697 354.211 54.2814 353.867 53.5157 353.18C52.7579 352.492 52.379 351.598 52.379 350.496C52.379 349.418 52.7775 348.562 53.5743 347.93C54.3712 347.289 55.5001 346.93 56.9611 346.852L60.3361 346.652V345.703C60.3361 345.016 60.1173 344.48 59.6798 344.098C59.2423 343.707 58.6368 343.512 57.8634 343.512C57.1447 343.512 56.5587 343.672 56.1056 343.992C55.6603 344.312 55.379 344.754 55.2618 345.316H52.8712C52.9415 344.176 53.4337 343.246 54.3478 342.527C55.2618 341.809 56.465 341.449 57.9572 341.449C59.4493 341.449 60.6368 341.816 61.5197 342.551C62.4103 343.285 62.8556 344.27 62.8556 345.504L62.8556 354H60.4298L60.4298 351.973H60.3712C60.0197 352.652 59.4845 353.195 58.7657 353.602C58.0548 354.008 57.2931 354.211 56.4806 354.211Z" fill="white" fill-opacity="0.2"/>
<path d="M45.3276 343.512H42.7378L42.7378 346.746H45.0815C46.5112 346.746 47.2261 346.199 47.2261 345.105C47.2261 344.598 47.062 344.207 46.7339 343.934C46.4058 343.652 45.937 343.512 45.3276 343.512ZM45.2456 348.516H42.7378L42.7378 352.16H45.5269C46.2456 352.16 46.7925 352.008 47.1675 351.703C47.5425 351.391 47.73 350.938 47.73 350.344C47.73 349.125 46.9019 348.516 45.2456 348.516ZM40.2417 354L40.2417 341.672H45.8433C47.0464 341.672 47.9878 341.953 48.6675 342.516C49.355 343.07 49.6987 343.836 49.6987 344.812C49.6987 345.453 49.4956 346.031 49.0894 346.547C48.6909 347.055 48.1948 347.363 47.6011 347.473V347.566C48.3979 347.676 49.0386 347.992 49.5229 348.516C50.0073 349.031 50.2495 349.676 50.2495 350.449C50.2495 351.535 49.8589 352.398 49.0776 353.039C48.3042 353.68 47.2495 354 45.9136 354H40.2417Z" fill="white" fill-opacity="0.2"/>
<path d="M192.073 328H189.636L189.636 315.672H192.811L196.761 324.707H196.854L200.827 315.672H203.932L203.932 328H201.472L201.472 319.445H201.39L197.698 327.52H195.847L192.155 319.445H192.073L192.073 328Z" fill="white" fill-opacity="0.2"/>
<path d="M183.698 318.379C183.143 317.785 182.428 317.488 181.553 317.488C180.678 317.488 179.951 317.789 179.373 318.391C178.795 318.984 178.475 319.754 178.412 320.699H184.576C184.545 319.746 184.252 318.973 183.698 318.379ZM184.565 324.379H186.967C186.787 325.512 186.209 326.438 185.233 327.156C184.256 327.875 183.065 328.234 181.658 328.234C179.854 328.234 178.432 327.668 177.393 326.535C176.362 325.395 175.846 323.848 175.846 321.895C175.846 319.957 176.362 318.398 177.393 317.219C178.432 316.039 179.819 315.449 181.553 315.449C183.256 315.449 184.608 316.008 185.608 317.125C186.608 318.234 187.108 319.727 187.108 321.602V322.469H178.401V322.621C178.401 323.699 178.701 324.562 179.303 325.211C179.905 325.859 180.709 326.184 181.717 326.184C182.428 326.184 183.037 326.02 183.545 325.691C184.053 325.363 184.393 324.926 184.565 324.379Z" fill="white" fill-opacity="0.2"/>
<path d="M167.693 326.207C168.584 326.207 169.33 325.938 169.931 325.398C170.541 324.852 170.845 324.18 170.845 323.383V322.41L167.81 322.598C167.052 322.652 166.466 322.84 166.052 323.16C165.646 323.473 165.443 323.895 165.443 324.426C165.443 324.965 165.646 325.398 166.052 325.727C166.466 326.047 167.013 326.207 167.693 326.207ZM166.99 328.211C165.779 328.211 164.791 327.867 164.025 327.18C163.267 326.492 162.888 325.598 162.888 324.496C162.888 323.418 163.287 322.562 164.084 321.93C164.88 321.289 166.009 320.93 167.47 320.852L170.845 320.652V319.703C170.845 319.016 170.627 318.48 170.189 318.098C169.752 317.707 169.146 317.512 168.373 317.512C167.654 317.512 167.068 317.672 166.615 317.992C166.17 318.312 165.888 318.754 165.771 319.316H163.38C163.451 318.176 163.943 317.246 164.857 316.527C165.771 315.809 166.974 315.449 168.466 315.449C169.959 315.449 171.146 315.816 172.029 316.551C172.92 317.285 173.365 318.27 173.365 319.504L173.365 328H170.939V325.973H170.88C170.529 326.652 169.994 327.195 169.275 327.602C168.564 328.008 167.802 328.211 166.99 328.211Z" fill="white" fill-opacity="0.2"/>
<path d="M155.837 317.512H153.247V320.746H155.591C157.021 320.746 157.735 320.199 157.735 319.105C157.735 318.598 157.571 318.207 157.243 317.934C156.915 317.652 156.446 317.512 155.837 317.512ZM155.755 322.516H153.247L153.247 326.16H156.036C156.755 326.16 157.302 326.008 157.677 325.703C158.052 325.391 158.239 324.938 158.239 324.344C158.239 323.125 157.411 322.516 155.755 322.516ZM150.751 328L150.751 315.672H156.353C157.556 315.672 158.497 315.953 159.177 316.516C159.864 317.07 160.208 317.836 160.208 318.812C160.208 319.453 160.005 320.031 159.599 320.547C159.2 321.055 158.704 321.363 158.11 321.473V321.566C158.907 321.676 159.548 321.992 160.032 322.516C160.517 323.031 160.759 323.676 160.759 324.449C160.759 325.535 160.368 326.398 159.587 327.039C158.813 327.68 157.759 328 156.423 328H150.751Z" fill="white" fill-opacity="0.2"/>
<path d="M145.153 328L145.153 315.672H147.66L147.66 328H145.153ZM138.824 321.461H136.692L136.692 326.008H138.824C139.551 326.008 140.129 325.801 140.559 325.387C140.996 324.965 141.215 324.414 141.215 323.734C141.215 323.047 140.996 322.496 140.559 322.082C140.121 321.668 139.543 321.461 138.824 321.461ZM134.172 328L134.172 315.672H136.692V319.48H139.047C140.477 319.48 141.614 319.867 142.457 320.641C143.309 321.406 143.735 322.438 143.735 323.734C143.735 325.039 143.309 326.078 142.457 326.852C141.614 327.617 140.477 328 139.047 328H134.172Z" fill="white" fill-opacity="0.2"/>
<path d="M131.75 319.621H129.312C129.14 319.012 128.812 318.516 128.328 318.133C127.843 317.75 127.226 317.559 126.476 317.559C125.5 317.559 124.714 317.949 124.121 318.73C123.535 319.504 123.242 320.539 123.242 321.836C123.242 323.164 123.535 324.211 124.121 324.977C124.714 325.734 125.507 326.113 126.5 326.113C127.242 326.113 127.855 325.938 128.339 325.586C128.824 325.227 129.156 324.723 129.336 324.074H131.773C131.593 325.324 131.023 326.332 130.062 327.098C129.109 327.855 127.914 328.234 126.476 328.234C124.703 328.234 123.293 327.66 122.246 326.512C121.199 325.363 120.675 323.805 120.675 321.836C120.675 319.898 121.199 318.352 122.246 317.195C123.3 316.031 124.703 315.449 126.453 315.449C127.914 315.449 129.113 315.848 130.05 316.645C130.996 317.434 131.562 318.426 131.75 319.621Z" fill="white" fill-opacity="0.2"/>
<path d="M109.862 328H107.366L107.366 315.672H109.862L109.862 324.309H109.956L115.651 315.672H118.147L118.147 328H115.651L115.651 319.34H115.558L109.862 328Z" fill="white" fill-opacity="0.2"/>
<path d="M101.745 328L101.745 317.676H96.2836L96.2836 328H93.764L93.764 315.672H104.276L104.276 328H101.745Z" fill="white" fill-opacity="0.2"/>
<path d="M85.072 326.207C85.9626 326.207 86.7087 325.938 87.3103 325.398C87.9197 324.852 88.2244 324.18 88.2244 323.383V322.41L85.1892 322.598C84.4314 322.652 83.8455 322.84 83.4314 323.16C83.0251 323.473 82.822 323.895 82.822 324.426C82.822 324.965 83.0251 325.398 83.4314 325.727C83.8455 326.047 84.3923 326.207 85.072 326.207ZM84.3689 328.211C83.158 328.211 82.1697 327.867 81.4041 327.18C80.6462 326.492 80.2673 325.598 80.2673 324.496C80.2673 323.418 80.6658 322.562 81.4626 321.93C82.2595 321.289 83.3884 320.93 84.8494 320.852L88.2244 320.652L88.2244 319.703C88.2244 319.016 88.0056 318.48 87.5681 318.098C87.1306 317.707 86.5251 317.512 85.7517 317.512C85.033 317.512 84.447 317.672 83.9939 317.992C83.5486 318.312 83.2673 318.754 83.1501 319.316H80.7595C80.8298 318.176 81.322 317.246 82.2361 316.527C83.1501 315.809 84.3533 315.449 85.8455 315.449C87.3376 315.449 88.5251 315.816 89.408 316.551C90.2986 317.285 90.7439 318.27 90.7439 319.504L90.7439 328H88.3181L88.3181 325.973H88.2595C87.908 326.652 87.3728 327.195 86.6541 327.602C85.9431 328.008 85.1814 328.211 84.3689 328.211Z" fill="white" fill-opacity="0.2"/>
<path d="M69.5128 320.453V318.262H71.7863C72.755 318.262 73.5402 318.004 74.1417 317.488C74.7511 316.973 75.0558 316.309 75.0558 315.496C75.0558 314.684 74.7706 314.043 74.2003 313.574C73.6378 313.105 72.8722 312.871 71.9034 312.871C70.9191 312.871 70.1222 313.113 69.5128 313.598C68.9113 314.074 68.5714 314.734 68.4933 315.578H66.0089C66.0948 314.062 66.673 312.867 67.7433 311.992C68.8136 311.117 70.2277 310.68 71.9855 310.68C73.6495 310.68 75.0089 311.105 76.0636 311.957C77.1183 312.801 77.6456 313.891 77.6456 315.227C77.6456 316.172 77.3527 317.004 76.7667 317.723C76.1886 318.434 75.4308 318.902 74.4933 319.129V319.223C75.6261 319.363 76.5206 319.809 77.1769 320.559C77.8331 321.309 78.1613 322.258 78.1613 323.406C78.1613 324.828 77.5675 326.02 76.38 326.98C75.1925 327.934 73.712 328.41 71.9386 328.41C70.1027 328.41 68.6027 327.957 67.4386 327.051C66.2745 326.145 65.6534 324.945 65.5753 323.453H68.1066C68.1847 324.281 68.5675 324.945 69.255 325.445C69.9503 325.938 70.8409 326.184 71.9269 326.184C72.9816 326.184 73.8331 325.914 74.4816 325.375C75.1378 324.836 75.4659 324.137 75.4659 323.277C75.4659 322.395 75.1456 321.703 74.505 321.203C73.8722 320.703 72.9894 320.453 71.8566 320.453H69.5128Z" fill="white" fill-opacity="0.2"/>
</svg>
