<svg width="197" height="145" viewBox="0 0 197 145" fill="none" xmlns="http://www.w3.org/2000/svg">
<path d="M98.2656 1.53027L98.2656 0.000385642H98.2656L98.2656 1.53027ZM134.291 37.5527L135.821 37.5527V37.5526L134.291 37.5527ZM134.291 90.877L135.821 90.877V90.877H134.291ZM125.284 99.8828L125.284 101.413H125.284L125.284 99.8828ZM116.278 90.8955L117.808 90.8923C117.806 90.0486 117.122 89.3656 116.278 89.3656C115.435 89.3656 114.75 90.0486 114.748 90.8923L116.278 90.8955ZM107.273 99.8828L107.273 101.413H107.274L107.273 99.8828ZM98.2666 90.877H96.7367V90.877L98.2666 90.877ZM98.2666 90.8711L99.7965 90.8721C99.7967 90.4661 99.6357 90.0768 99.3487 89.7896C99.0618 89.5025 98.6725 89.3412 98.2666 89.3412L98.2666 90.8711ZM98.2656 90.8711L98.2656 89.3412C97.8597 89.3412 97.4704 89.5025 97.1835 89.7896C96.8965 90.0768 96.7355 90.4661 96.7357 90.8721L98.2656 90.8711ZM98.2656 90.877L99.7955 90.877V90.877L98.2656 90.877ZM89.2598 99.8828L89.2596 101.413H89.2599L89.2598 99.8828ZM80.2529 90.8955L81.7828 90.8923C81.7811 90.0486 81.0966 89.3656 80.2529 89.3656C79.4092 89.3656 78.7248 90.0486 78.723 90.8923L80.2529 90.8955ZM71.2471 99.8828L71.2469 101.413H71.2472L71.2471 99.8828ZM62.2402 90.877H60.7103V90.877L62.2402 90.877ZM62.2402 37.5527L60.7103 37.5526V37.5527H62.2402ZM98.2656 1.53027L98.2656 3.06016C117.316 3.06024 132.76 18.5028 132.761 37.5529L134.291 37.5527L135.821 37.5526C135.819 16.8128 119.006 0.000469804 98.2656 0.000385642L98.2656 1.53027ZM134.291 37.5527H132.761L132.761 90.877H134.291H135.821L135.821 37.5527L134.291 37.5527ZM134.291 90.877L132.761 90.8769C132.761 95.0055 129.413 98.3527 125.284 98.3529L125.284 99.8828L125.284 101.413C131.103 101.412 135.821 96.6958 135.821 90.877L134.291 90.877ZM125.284 99.8828L125.284 98.3529C121.161 98.3523 117.817 95.0136 117.808 90.8923L116.278 90.8955L114.748 90.8987C114.76 96.7072 119.473 101.412 125.284 101.413L125.284 99.8828ZM116.278 90.8955L114.748 90.8923C114.74 95.0142 111.397 98.3526 107.273 98.3529L107.273 99.8828L107.274 101.413C113.085 101.412 117.796 96.7071 117.808 90.8987L116.278 90.8955ZM107.273 99.8828L107.274 98.3529C103.145 98.3525 99.7967 95.0053 99.7965 90.8769L98.2666 90.877L96.7367 90.877C96.737 96.6958 101.455 101.412 107.273 101.413L107.273 99.8828ZM98.2666 90.877L99.7965 90.877C99.7965 90.8736 99.7965 90.8735 99.7965 90.8721L98.2666 90.8711L96.7367 90.8701C96.7367 90.8726 96.7367 90.8764 96.7367 90.877H98.2666ZM98.2666 90.8711L98.2666 89.3412H98.2656L98.2656 90.8711V92.401H98.2666V90.8711ZM98.2656 90.8711L96.7357 90.8721C96.7357 90.8735 96.7357 90.8736 96.7357 90.877H98.2656L99.7955 90.877C99.7955 90.8764 99.7955 90.8726 99.7955 90.8701L98.2656 90.8711ZM98.2656 90.877L96.7357 90.8769C96.7355 95.0056 93.3884 98.3526 89.2596 98.3529L89.2598 99.8828L89.2599 101.413C95.0782 101.412 99.7952 96.6956 99.7955 90.877L98.2656 90.877ZM89.2598 99.8828L89.2599 98.3529C85.1361 98.3525 81.7913 95.0136 81.7828 90.8923L80.2529 90.8955L78.723 90.8987C78.7351 96.7075 83.4488 101.412 89.2596 101.413L89.2598 99.8828ZM80.2529 90.8955L78.723 90.8923C78.7145 95.014 75.3707 98.3527 71.247 98.3529L71.2471 99.8828L71.2472 101.413C77.0585 101.412 81.7708 96.7074 81.7828 90.8987L80.2529 90.8955ZM71.2471 99.8828L71.2472 98.3529C67.1183 98.3525 63.7703 95.0052 63.7701 90.8769L62.2402 90.877L60.7103 90.877C60.7106 96.6958 65.4289 101.412 71.2469 101.413L71.2471 99.8828ZM62.2402 90.877H63.7701L63.7701 37.5527H62.2402H60.7103L60.7103 90.877H62.2402ZM62.2402 37.5527L63.7701 37.5529C63.7717 18.5033 79.2158 3.06091 98.2657 3.06016L98.2656 1.53027L98.2656 0.000385642C77.5261 0.00120401 60.712 16.8131 60.7103 37.5526L62.2402 37.5527Z" fill="white" fill-opacity="0.3"/>
<path d="M93.8367 37.5898C93.0438 37.5898 92.4011 38.2429 92.4011 39.0487L93.8367 39.0487L92.4011 39.0503L92.4011 39.0847C92.4014 39.1014 92.4019 39.1228 92.4027 39.1486C92.4043 39.2006 92.4073 39.2709 92.4128 39.3565C92.4238 39.5274 92.4453 39.7632 92.4873 40.0424C92.5702 40.5937 92.7387 41.3533 93.0899 42.1319C93.4422 42.9131 93.9985 43.7571 94.8759 44.4056C95.7688 45.0655 96.9075 45.4578 98.3021 45.4578C99.6968 45.4578 100.835 45.0655 101.728 44.4056C102.606 43.7571 103.162 42.9131 103.514 42.1319C103.866 41.3533 104.034 40.5937 104.117 40.0424C104.159 39.7632 104.18 39.5274 104.191 39.3565C104.197 39.2709 104.2 39.2006 104.202 39.1486C104.202 39.1228 104.203 39.1014 104.203 39.0847L104.203 39.0503C104.203 39.0496 104.203 39.0487 102.768 39.0487L104.203 39.0487C104.203 38.2429 103.56 37.5898 102.768 37.5898C101.976 37.5898 101.334 38.2406 101.332 39.0444L101.331 39.06C101.331 39.0805 101.329 39.1169 101.326 39.1663C101.32 39.2661 101.306 39.4173 101.279 39.602C101.222 39.9788 101.111 40.457 100.904 40.9158C100.698 41.3721 100.417 41.7658 100.039 42.0454C99.676 42.3136 99.1401 42.5401 98.3021 42.5401C97.4641 42.5401 96.9282 42.3136 96.5652 42.0454C96.1869 41.7658 95.9058 41.3721 95.7 40.9158C95.493 40.457 95.3824 39.9788 95.3257 39.602C95.298 39.4173 95.2846 39.2661 95.2782 39.1663C95.275 39.1169 95.2735 39.0805 95.2729 39.06L95.2723 39.0444C95.2701 38.2406 94.6283 37.5898 93.8367 37.5898Z" fill="white" fill-opacity="0.3"/>
<path d="M113.217 23.5029C117.096 23.5029 120.242 26.6477 120.242 30.5273C120.242 34.4071 117.097 37.5527 113.217 37.5527C109.337 37.5527 106.191 34.4071 106.191 30.5273C106.192 26.6477 109.337 23.5029 113.217 23.5029ZM114.838 24.9395C112.848 24.9395 111.235 26.5524 111.235 28.542C111.236 30.5314 112.848 32.1445 114.838 32.1445C116.827 32.1443 118.44 30.5313 118.44 28.542C118.44 26.5525 116.827 24.9396 114.838 24.9395Z" fill="white" fill-opacity="0.3"/>
<path d="M82.9551 23.5029C86.8348 23.5029 89.9803 26.6477 89.9805 30.5273C89.9805 34.4071 86.8349 37.5527 82.9551 37.5527C79.0755 37.5525 75.9307 34.407 75.9307 30.5273C75.9308 26.6479 79.0756 23.5032 82.9551 23.5029ZM84.2158 24.9395C82.2262 24.9395 80.6133 26.5524 80.6133 28.542C80.6135 30.5314 82.2263 32.1445 84.2158 32.1445C86.2051 32.1443 87.8181 30.5313 87.8184 28.542C87.8184 26.5525 86.2053 24.9396 84.2158 24.9395Z" fill="white" fill-opacity="0.3"/>
<path d="M191.588 135.383C190.969 135.383 190.452 135.594 190.035 136.018C189.625 136.441 189.394 136.981 189.342 137.639H193.785C193.753 136.968 193.535 136.424 193.131 136.008C192.734 135.591 192.219 135.383 191.588 135.383ZM193.824 140.764H196.441C196.285 141.792 195.771 142.622 194.898 143.254C194.033 143.879 192.955 144.191 191.666 144.191C190.058 144.191 188.795 143.71 187.877 142.746C186.965 141.783 186.51 140.461 186.51 138.781C186.51 137.108 186.965 135.773 187.877 134.777C188.788 133.775 190.016 133.273 191.559 133.273C193.076 133.273 194.283 133.749 195.182 134.699C196.08 135.65 196.529 136.923 196.529 138.518V139.387H189.312V139.562C189.312 140.311 189.531 140.92 189.967 141.389C190.41 141.851 190.992 142.082 191.715 142.082C192.236 142.082 192.685 141.965 193.062 141.73C193.44 141.49 193.694 141.167 193.824 140.764Z" fill="white" fill-opacity="0.3"/>
<path d="M185.251 133.498V135.646H182.136V143.967H179.294V135.646H176.169V133.498H185.251Z" fill="white" fill-opacity="0.3"/>
<path d="M167.303 143.967H164.51V133.498H167.303V140.041H167.381L171.541 133.498H174.334V143.967H171.541V137.346H171.463L167.303 143.967Z" fill="white" fill-opacity="0.3"/>
<path d="M159.237 143.967V139.68H155.214V143.967H152.372V133.498H155.214V137.521H159.237V133.498H162.079V143.967H159.237Z" fill="white" fill-opacity="0.3"/>
<path d="M150.341 135.646H145.888V143.967H143.046V133.498H150.341V135.646Z" fill="white" fill-opacity="0.3"/>
<path d="M135.576 142.072C136.208 142.072 136.742 141.89 137.178 141.525C137.62 141.154 137.842 140.689 137.842 140.129V139.367L135.635 139.504C135.101 139.543 134.688 139.676 134.395 139.904C134.108 140.132 133.965 140.432 133.965 140.803C133.965 141.193 134.111 141.503 134.404 141.73C134.697 141.958 135.088 142.072 135.576 142.072ZM134.639 144.133C133.63 144.133 132.793 143.837 132.129 143.244C131.465 142.652 131.133 141.89 131.133 140.959C131.133 140.008 131.484 139.263 132.188 138.723C132.891 138.182 133.896 137.873 135.205 137.795L137.842 137.639V136.945C137.842 136.464 137.682 136.086 137.363 135.812C137.051 135.539 136.624 135.402 136.084 135.402C135.563 135.402 135.137 135.52 134.805 135.754C134.479 135.988 134.281 136.304 134.209 136.701H131.602C131.654 135.673 132.093 134.846 132.92 134.221C133.747 133.589 134.844 133.273 136.211 133.273C137.552 133.273 138.626 133.592 139.434 134.23C140.241 134.868 140.645 135.715 140.645 136.77V143.967H137.891V142.365H137.832C137.546 142.912 137.109 143.345 136.523 143.664C135.938 143.977 135.309 144.133 134.639 144.133Z" fill="white" fill-opacity="0.3"/>
<path d="M128.858 143.967H126.231V134.455H126.153L122.325 143.83H120.47L116.642 134.455H116.563V143.967H113.937V129.875H117.354L121.358 139.865H121.437L125.44 129.875H128.858V143.967Z" fill="white" fill-opacity="0.3"/>
<path d="M102.532 135.305H100.843V137.736H102.386C102.907 137.736 103.304 137.632 103.577 137.424C103.857 137.209 103.997 136.903 103.997 136.506C103.997 136.122 103.87 135.826 103.616 135.617C103.362 135.409 103.001 135.305 102.532 135.305ZM102.532 139.387H100.843V142.16H102.659C103.219 142.16 103.646 142.043 103.938 141.809C104.238 141.568 104.388 141.219 104.388 140.764C104.388 139.846 103.769 139.387 102.532 139.387ZM98.0498 143.967V133.498H103.294C104.381 133.498 105.234 133.732 105.853 134.201C106.471 134.663 106.78 135.308 106.78 136.135C106.78 136.695 106.598 137.193 106.233 137.629C105.875 138.059 105.426 138.316 104.886 138.4V138.479C105.589 138.563 106.159 138.83 106.595 139.279C107.031 139.729 107.249 140.282 107.249 140.939C107.249 141.857 106.901 142.593 106.204 143.146C105.514 143.693 104.576 143.967 103.392 143.967H98.0498Z" fill="white" fill-opacity="0.3"/>
<path d="M86.7725 138.586H88.4814V135.617H86.7725C86.2712 135.617 85.8708 135.757 85.5713 136.037C85.2783 136.311 85.1318 136.678 85.1318 137.141C85.1318 137.564 85.2816 137.912 85.5811 138.186C85.8805 138.452 86.2777 138.586 86.7725 138.586ZM88.4814 143.967V140.588H87.3389L85.0146 143.967H81.8506L84.6045 140.158C83.8818 139.93 83.3154 139.556 82.9053 139.035C82.5016 138.508 82.2998 137.873 82.2998 137.131C82.2998 136.018 82.6774 135.135 83.4326 134.484C84.1943 133.827 85.2132 133.498 86.4893 133.498H91.2646V143.967H88.4814Z" fill="white" fill-opacity="0.3"/>
<path d="M80.5918 137.072H77.9258C77.8021 136.597 77.5677 136.219 77.2227 135.939C76.8776 135.653 76.4447 135.51 75.9238 135.51C75.2207 135.51 74.6641 135.796 74.2539 136.369C73.8503 136.942 73.6484 137.727 73.6484 138.723C73.6484 139.738 73.8503 140.533 74.2539 141.105C74.6641 141.672 75.224 141.955 75.9336 141.955C76.4609 141.955 76.8971 141.818 77.2422 141.545C77.5872 141.271 77.8216 140.887 77.9453 140.393H80.6016C80.4714 141.558 79.9863 142.482 79.1465 143.166C78.3066 143.85 77.2259 144.191 75.9043 144.191C74.3288 144.191 73.0788 143.703 72.1543 142.727C71.2363 141.75 70.7773 140.415 70.7773 138.723C70.7773 137.056 71.2363 135.731 72.1543 134.748C73.0788 133.765 74.3223 133.273 75.8848 133.273C77.2064 133.273 78.2839 133.625 79.1172 134.328C79.957 135.031 80.4486 135.946 80.5918 137.072Z" fill="white" fill-opacity="0.3"/>
<path d="M58.5225 143.967H55.8467V133.498H59.5381L62.2725 140.334H62.3408L65.0752 133.498H68.7275V143.967H66.0518V136.965H65.9834L63.2686 143.381H61.2959L58.5908 136.965H58.5225V143.967Z" fill="white" fill-opacity="0.3"/>
<path d="M46.3838 143.967H43.5908V133.498H46.3838V140.041H46.4619L50.6221 133.498H53.415V143.967H50.6221V137.346H50.5439L46.3838 143.967Z" fill="white" fill-opacity="0.3"/>
<path d="M38.3184 143.967V135.646H34.3926V143.967H31.5508V133.498H41.1602V143.967H38.3184Z" fill="white" fill-opacity="0.3"/>
<path d="M28.124 142.746C27.193 143.71 25.93 144.191 24.335 144.191C22.7399 144.191 21.4769 143.706 20.5459 142.736C19.6149 141.766 19.1494 140.428 19.1494 138.723C19.1494 137.036 19.6182 135.708 20.5557 134.738C21.4997 133.762 22.7594 133.273 24.335 133.273C25.917 133.273 27.1768 133.762 28.1143 134.738C29.0518 135.708 29.5205 137.036 29.5205 138.723C29.5205 140.435 29.055 141.776 28.124 142.746ZM24.335 142.014C25.0381 142.014 25.5947 141.727 26.0049 141.154C26.415 140.581 26.6201 139.774 26.6201 138.732C26.6201 137.704 26.415 136.9 26.0049 136.32C25.5947 135.741 25.0381 135.451 24.335 135.451C23.6318 135.451 23.0719 135.741 22.6553 136.32C22.2451 136.9 22.04 137.704 22.04 138.732C22.04 139.774 22.2451 140.581 22.6553 141.154C23.0654 141.727 23.6253 142.014 24.335 142.014Z" fill="white" fill-opacity="0.3"/>
<path d="M0 143.967V129.875H2.94922V141.535H6.95312V129.875H9.90234V141.535H13.9062V129.875H16.8555V143.967H0Z" fill="white" fill-opacity="0.3"/>
</svg>
